<?xml version="1.0" encoding="utf-8"?>
<!-- Generator: Adobe Illustrator 15.0.0, SVG Export Plug-In . SVG Version: 6.00 Build 0)  -->
<!DOCTYPE svg PUBLIC "-//W3C//DTD SVG 1.1//EN" "http://www.w3.org/Graphics/SVG/1.1/DTD/svg11.dtd">
<svg version="1.1" id="Calque_1" xmlns="http://www.w3.org/2000/svg" xmlns:xlink="http://www.w3.org/1999/xlink" x="0px" y="0px"
	 width="84.667px" height="89.333px" viewBox="0 0 84.667 89.333" enable-background="new 0 0 84.667 89.333" xml:space="preserve">
<path fill="#759F3C" d="M68.912,26.855c1.248-4.392,1.588-8.876,1.453-13.422c-0.094-3.226-2.1-5.306-5.102-5.431
	c-2.871-0.121-5.148,2.704-5.164,5.422c-0.018,2.937-0.303,5.877-0.57,8.804c-0.256,2.82-1.516,5.22-3.498,7.205
	c-0.539,0.541-1.121,1.034-1.775,1.352c-0.479-7.014-0.971-14.026-1.439-21.04c-0.16-2.383-1.246-4.318-2.918-5.885
	c-3.619-3.395-8.956-3.774-13.517-1.096c-2.132,1.251-4.021,2.692-4.23,5.425c-0.701,9.13-1.445,18.257-2.058,27.391
	c-0.31,4.651-0.378,9.319-0.556,13.979c-0.227,0.133-0.456,0.264-0.683,0.396c-1.082-0.704-2.292-1.269-3.221-2.139
	c-2.998-2.81-3.929-6.588-4.368-10.46c-0.266-2.352-0.134-4.753-0.101-7.133c0.039-2.822-2.574-5.834-5.447-5.732
	c-3.283,0.117-5.623,2.271-5.678,5.592c-0.035,2.039-0.088,4.085,0.057,6.116c0.343,4.727,1.222,9.343,3.425,13.612
	c3.167,6.136,8.082,9.926,14.929,11.166c0.369,0.067,0.862,0.692,0.908,1.102c0.485,4.245,0.861,8.505,1.325,12.754
	c0.295,2.693,0.583,5.393,1.06,8.058c0.779,4.352,0.833,4.214-3.632,4.583c-2.889,0.239-5.744,0.909-8.611,1.386
	c0.026,0.193,0.054,0.383,0.081,0.572h45.872c0.023-0.181,0.045-0.359,0.07-0.54c-2.889-0.483-5.777-0.978-8.668-1.445
	c-1.164-0.188-2.34-0.293-3.504-0.482c-1.033-0.171-1.104-0.701-0.857-1.707c0.737-3.011,1.525-6.042,1.854-9.112
	c0.482-4.486,0.604-9.009,0.828-13.52c0.038-0.771-0.137-13.22-0.359-21.149C68.097,39.696,67.343,32.367,68.912,26.855z"/>
<linearGradient id="SVGID_1_" gradientUnits="userSpaceOnUse" x1="42.6157" y1="45.2153" x2="70.3921" y2="45.2153">
	<stop  offset="0" style="stop-color:#008D36;stop-opacity:0"/>
	<stop  offset="1" style="stop-color:#008D36"/>
</linearGradient>
<path fill="url(#SVGID_1_)" d="M42.914,89.43h22.539c0.023-0.181,0.045-0.359,0.07-0.54c-2.889-0.483-5.777-0.978-8.668-1.445
	c-1.164-0.188-2.34-0.293-3.504-0.482c-1.033-0.171-1.104-0.701-0.857-1.707c0.737-3.011,1.525-6.042,1.854-9.112
	c0.482-4.486,0.604-9.009,0.828-13.52c0.038-0.771-0.137-13.22-0.359-21.149c13.281-1.778,12.527-9.107,14.096-14.619
	c1.248-4.392,1.588-8.876,1.453-13.422c-0.094-3.226-2.1-5.306-5.102-5.431c-2.871-0.121-5.148,2.704-5.164,5.422
	c-0.018,2.937-0.303,5.877-0.57,8.804c-0.256,2.82-1.516,5.22-3.498,7.205c-0.539,0.541-1.121,1.034-1.775,1.352
	c-0.479-7.014-0.971-14.026-1.439-21.04c-0.16-2.383-1.246-4.318-2.918-5.885C47.864,1.953,45.291,0.997,42.616,1
	c0,0,2.837,17.367,2.837,44.215C45.453,72.064,42.914,89.43,42.914,89.43z"/>
</svg>
