<?xml version="1.0" encoding="utf-8"?>
<!-- Generator: Adobe Illustrator 15.0.0, SVG Export Plug-In . SVG Version: 6.00 Build 0)  -->
<!DOCTYPE svg PUBLIC "-//W3C//DTD SVG 1.1//EN" "http://www.w3.org/Graphics/SVG/1.1/DTD/svg11.dtd">
<svg version="1.1" id="Layer_1" xmlns="http://www.w3.org/2000/svg" xmlns:xlink="http://www.w3.org/1999/xlink" x="0px" y="0px"
	 width="160px" height="120px" viewBox="0 0 160 120" enable-background="new 0 0 160 120" xml:space="preserve">
<g id="Layer_3_1_" inkpad:layerName="nuage ">
	<path fill="#515151" d="M37.389,74.669c0,0,18.977,19.555,38.004,5.564c0,0,15.998,9.573,28.029,8.397
		c23.62-2.31,22.878-13.815,23.62-14.594c0,0,13.666-0.926,13.456-11.738c-0.21-10.812-29.764-13.639-29.764-13.639
		c-8.037-21.296-26.037-11.251-26.037-11.251c-10.286-12.697-22.446,3.626-22.446,3.626C47.811,37.865,46.876,52.27,46.6,52.123
		c-19.316-10.288-26.763,5.428-27.821,16.062C17.721,78.822,37.389,74.669,37.389,74.669z"/>
	<path fill="#191919" d="M37.383,74.77c0,0,18.977,19.557,38.004,5.565c0,0,15.998,9.573,28.029,8.396
		c23.621-2.31,22.879-13.813,23.621-14.593c0,0,13.666-0.926,13.455-11.737c0,0-8.141,6.104-19.512,1.542
		c0,0-2.41,11.114-13.638,13.226c-11.228,2.11-29.241-4.442-29.241-4.442C49.711,82.8,41.629,69.006,41.629,69.006
		c-13.859,2.626-22.856-0.719-22.856-0.719C17.717,78.922,37.383,74.77,37.383,74.77z"/>
</g>
</svg>
