<?xml version="1.0" encoding="utf-8"?>
<!-- Generator: Adobe Illustrator 15.0.0, SVG Export Plug-In . SVG Version: 6.00 Build 0)  -->
<!DOCTYPE svg PUBLIC "-//W3C//DTD SVG 1.1//EN" "http://www.w3.org/Graphics/SVG/1.1/DTD/svg11.dtd">
<svg version="1.1" id="Layer_1" xmlns="http://www.w3.org/2000/svg" xmlns:xlink="http://www.w3.org/1999/xlink" x="0px" y="0px"
	 width="64.25px" height="102px" viewBox="0 0 64.25 102" enable-background="new 0 0 64.25 102" xml:space="preserve">
<g>
	<g>
		<path fill-rule="evenodd" clip-rule="evenodd" fill="#171618" d="M57.003,11.25c1.968-1.366,0.276-6.391,1.5-8.5
			c2.009-0.008,1.391,2.61,1.5,4.5c0,0.333,0,0.667,0,1c-1.135,0.532-0.19,3.143-0.5,4.5c-0.5,0-1,0-1.5,0
			c0.043-0.709,0.083-1.416-0.5-1.5C57.337,11.25,57.17,11.25,57.003,11.25z"/>
		<path fill-rule="evenodd" clip-rule="evenodd" fill="#C80E0C" d="M52.503,3.25c0,1.833,0,3.667,0,5.5
			c-2.184-0.017-3.899,0.434-5.5,1c-1.145-0.856-0.184-3.817-0.5-5.5C48.233,3.647,50.255,3.335,52.503,3.25z"/>
		<path fill-rule="evenodd" clip-rule="evenodd" fill="#C80E0C" d="M26.502,7.75c1.623,0.29,2.326-0.341,3.5-0.5c0,2,0,4,0,6
			c-0.588,0.079-1.42-0.086-1.5,0.5c-1.232-0.066-2.41-0.076-3,0.5c-0.667,0-1.334,0-2,0c0-1.833,0-3.667,0-5.5
			C24.141,8.056,25.862,8.444,26.502,7.75z"/>
		<path fill-rule="evenodd" clip-rule="evenodd" fill="#EBE8E5" d="M12.501,11.25c-0.313,1.52,0.64,4.307-0.5,5
			C12.314,14.731,11.361,11.944,12.501,11.25z"/>
		<path fill-rule="evenodd" clip-rule="evenodd" fill="#171618" d="M15.001,12.75c-0.091-1.091,0.409-1.591,1.5-1.5
			c0.665,1.501,0.509,3.825,0.5,6c-0.14,1.306-0.169,2.502,1.5,2c-0.447,0.886-2.029,0.637-1.5,2.5
			c-0.305,0.028-0.592,0.075-0.5,0.5c-0.5,0-1,0-1.5,0c0-0.167,0-0.333,0-0.5C15.001,18.751,15.001,15.751,15.001,12.75z"/>
		<path fill-rule="evenodd" clip-rule="evenodd" fill="#C57873" d="M15.001,12.75c0,3,0,6,0,9c-0.167,0-0.333,0-0.5,0
			c0-1.667,0-3.333,0-5C14.806,15.555,13.873,13.123,15.001,12.75z"/>
		<path fill-rule="evenodd" clip-rule="evenodd" fill="#C80E0C" d="M58.003,12.75c0.5,0,1,0,1.5,0c0.414,1.795-1.127,2.419,0,3.5
			c-0.828,0.7-0.828,4.8,0,5.5c-0.071,8.758,0.053,21.602,0,32.002c0,1.667,0,3.333,0,5c-0.713,0.195-0.843,0.601-1.5,0
			c0-3.167,0-6.334,0-9.5c0-2.333,0-4.667,0-7C58.003,32.418,58.003,22.584,58.003,12.75z"/>
		<path fill-rule="evenodd" clip-rule="evenodd" fill="#C57873" d="M59.503,16.251c0,1.833,0,3.667,0,5.5
			C58.675,21.051,58.675,16.951,59.503,16.251z"/>
		<path fill-rule="evenodd" clip-rule="evenodd" fill="#C80E0C" d="M15.001,22.251c0.5,0,1,0,1.5,0c-0.81,5.71-1.226,8.055,0,12
			c-0.328,13.006,0.66,27.329-0.5,39.502c-0.167,0-0.333,0-0.5,0c-1.128-4.206-0.195-10.472-0.5-15.501c0-4.834,0-9.667,0-14.501
			C15.001,36.585,15.001,29.418,15.001,22.251z"/>
		<path fill-rule="evenodd" clip-rule="evenodd" fill="#DAD4D1" d="M57.503,42.252c0.167,0,0.334,0,0.5,0c0,2.333,0,4.667,0,7
			c-0.166,0-0.333,0-0.5,0C57.503,46.919,57.503,44.585,57.503,42.252z"/>
		<path fill-rule="evenodd" clip-rule="evenodd" fill="#EBE8E5" d="M14.501,43.752c0.167,0,0.333,0,0.5,0c0,4.834,0,9.667,0,14.501
			C13.838,54.416,14.832,48.422,14.501,43.752z"/>
		<path fill-rule="evenodd" clip-rule="evenodd" fill="#EBE8E5" d="M57.503,49.252c0.167,0,0.334,0,0.5,0c0,3.167,0,6.333,0,9.5
			C56.845,56.578,57.83,52.259,57.503,49.252z"/>
		<path fill-rule="evenodd" clip-rule="evenodd" fill="#EBE8E5" d="M59.503,53.753c0.167,0,0.334,0,0.5,0
			c-0.313,1.52,0.641,4.307-0.5,5C59.503,57.086,59.503,55.42,59.503,53.753z"/>
		<path fill-rule="evenodd" clip-rule="evenodd" fill="#171618" d="M58.003,76.754c1.294-0.539-0.48-4.148,2-3.5
			c0.317,1.684-0.644,4.645,0.5,5.5c0.542,2.875-1.109,3.558-2,5C57.351,82.406,58.326,78.932,58.003,76.754z"/>
		<path fill-rule="evenodd" clip-rule="evenodd" fill="#EBE8E5" d="M3.5,88.755c4.695,0.52,7.223,5.712,11.501,5
			c0,0.333,0,0.667,0,1c-3.905,1.643-7.575-3.999-11.501-5.5C3.5,89.088,3.5,88.921,3.5,88.755z"/>
		<path fill-rule="evenodd" clip-rule="evenodd" fill="#171618" d="M17.001,88.755c0.167,0,0.333,0,0.5,0
			c0.323,2.177-0.651,5.652,0.5,7c0,0.5,0,1,0,1.5c0,0.333,0,0.667,0,1c0,0.167,0,0.333,0,0.5c-0.748,0.586-2.045,0.622-2.5,1.5
			c-0.586-0.08-0.422-0.911-0.5-1.5c0-1.167,0-2.333,0-3.5c0-0.167,0-0.333,0-0.5c0-0.333,0-0.667,0-1c0-1.167,0-2.334,0-3.5
			c0.39-0.11,0.581-0.419,0.5-1C16.09,89.176,16.92,89.341,17.001,88.755z"/>
		<path fill-rule="evenodd" clip-rule="evenodd" fill="#EBE8E5" d="M3,90.755c1.1,0.525,1.662-0.017,3,1
			c-0.095,0.404-0.501,0.498-0.5,1C4.749,92.006,3.395,91.86,3,90.755z"/>
		<path fill-rule="evenodd" clip-rule="evenodd" fill="#EBE8E5" d="M6,92.755c0.283-0.891,1.391-0.072,0.5,0
			c1.832,0.07,1.502,2.107,3.501,1.5c-0.56,0.72-0.54,1.22,0.5,1.5c-0.71-1.758,3.16,0.177,2,1.5c1.685,0.185,0.897-2.103,2.5-2
			c0,1.167,0,2.333,0,3.5C11.504,97.253,8.504,95.252,6,92.755z"/>
		<path fill-rule="evenodd" clip-rule="evenodd" fill="#DAD4D1" d="M45.503,87.755c-9.16,3.507-17.679,7.656-27.502,10.5
			c0-0.333,0-0.667,0-1c0.925-0.075,0.308-1.693,1-2c5.229-0.314,8.994-4.614,14.001-3.5c-0.222-0.445-0.439-0.895-1-1
			C36.584,90.132,42.79,85.641,45.503,87.755z"/>
		<path fill-rule="evenodd" clip-rule="evenodd" fill="#EBE8E5" d="M61.503,1.75c0.802,0.835,1.051,5.359-0.5,5.5
			C61.93,6.177,61.341,3.587,61.503,1.75z"/>
		<path fill-rule="evenodd" clip-rule="evenodd" fill="#C57873" d="M46.503,4.25c0.678-1.341,4.519-2.123,6-1
			C50.255,3.335,48.233,3.647,46.503,4.25z"/>
		<path fill-rule="evenodd" clip-rule="evenodd" fill="#DAD4D1" d="M26.502,7.75c6.09-1.104,13.582-1.521,20.001-3.5
			c0.316,1.684-0.645,4.645,0.5,5.5c-6.133,1.368-12.476,2.525-18.501,4c0.08-0.586,0.912-0.421,1.5-0.5c0-2,0-4,0-6
			C28.828,7.41,28.125,8.04,26.502,7.75z"/>
		<path fill-rule="evenodd" clip-rule="evenodd" fill="#DAD4D1" d="M59.503,58.753c0,2,0,4,0,6c-1.332,0.835,0.277,4.611-1,5.501
			c-1.24,1.442,1.169-3.468-0.5-4.001c-0.468-3.058,0.045-4.019,0-7.5C58.66,59.354,58.79,58.948,59.503,58.753z"/>
		<path fill-rule="evenodd" clip-rule="evenodd" fill="#EBE8E5" d="M58.003,66.253c1.669,0.533-0.74,5.443,0.5,4.001
			c1.277-0.89-0.332-4.666,1-5.501c0,2,0,4.001,0,6.001c-2.647,0.931-1.543,2.956-1.5,6c0.323,2.178-0.652,5.652,0.5,7
			c-0.276,1.084-1.933-1.693-3,0c-0.365-2.18-4.521,0.268-2,0.5c-1.19,0.977-3.073,1.261-4.5,2c-1.337-0.887-2.483,0.025-4,0
			c0.222,0.445,0.438,0.895,1,1.001c0.092,0.425-0.195,0.472-0.5,0.5c-2.713-2.114-8.919,2.377-13.501,3
			c0.561,0.105,0.778,0.555,1,1c-5.007-1.114-8.771,3.186-14.001,3.5c-0.692,0.307-0.075,1.925-1,2c0-0.5,0-1,0-1.5
			c0.679-0.155,0.415-1.252,0.5-2c11.815-5.186,25.36-8.642,36.502-14.501c-0.841-0.992-2.869-0.797-3.5-2
			c1.9,0.267,2.772,1.562,5,1.5c1.658-0.176,0.785-2.882,1-4.5c-0.486,0.014-0.388,0.612-0.5,1c-0.166,0-0.333,0-0.5,0
			C57.498,71.649,58.111,70.743,58.003,66.253z"/>
		<path fill-rule="evenodd" clip-rule="evenodd" fill="#EBE8E5" d="M42.002,69.754c5.175,1.358,10.002,5.621,14.501,6
			C52.679,76.701,46.208,71.747,42.002,69.754z"/>
		<path fill-rule="evenodd" clip-rule="evenodd" fill="#C57873" d="M16.501,22.251c-0.092-0.425,0.195-0.472,0.5-0.5
			c0,17.167,0,34.335,0,51.503c-0.405,0.095-0.499,0.501-1,0.5c1.16-12.174,0.172-26.497,0.5-39.502
			C15.275,30.306,15.691,27.961,16.501,22.251z"/>
		<path fill-rule="evenodd" clip-rule="evenodd" fill="#DAD4D1" d="M58.003,76.754c-0.043-3.044-1.147-5.069,1.5-6
			c0.613,2.387,1.423,4.577,1,8c-1.144-0.855-0.183-3.816-0.5-5.5C57.522,72.605,59.297,76.215,58.003,76.754z"/>
		<path fill-rule="evenodd" clip-rule="evenodd" fill="#DAD4D1" d="M53.503,84.254c-2.521-0.232,1.635-2.68,2-0.5
			C54.606,83.69,54.448,84.366,53.503,84.254z"/>
		<path fill-rule="evenodd" clip-rule="evenodd" fill="#DAD4D1" d="M16.001,73.754c0.501,0.001,0.595-0.405,1-0.5
			c0,0.166,0,0.333,0,0.5c-2.724,4.116,2.044,11.956-0.5,14.501C17.788,86.968,14.512,76.441,16.001,73.754z"/>
		<path fill-rule="evenodd" clip-rule="evenodd" fill="#DAD4D1" d="M3.5,88.755c0,0.166,0,0.333,0,0.5
			c3.926,1.501,7.596,7.143,11.501,5.5c0,0.167,0,0.333,0,0.5c-1.603-0.103-0.815,2.185-2.5,2c1.16-1.323-2.71-3.258-2-1.5
			c-1.04-0.28-1.06-0.78-0.5-1.5c-1.999,0.607-1.669-1.43-3.501-1.5c0.891-0.072-0.217-0.891-0.5,0c-0.166,0-0.333,0-0.5,0
			c-0.001-0.502,0.405-0.596,0.5-1c-1.338-1.017-1.9-0.475-3-1c-0.333,0-0.666,0-1,0C1.859,89.447,2.184,88.604,3.5,88.755z"/>
		<path fill-rule="evenodd" clip-rule="evenodd" fill="#DAD4D1" d="M25.502,14.25c-2.593,1.242-6.954,0.713-8.501,3
			c0.009-2.175,0.165-4.499-0.5-6c-1.091-0.091-1.591,0.409-1.5,1.5c-1.128,0.373-0.195,2.805-0.5,4
			c-0.342,0.386-2.979,1.302-2.5-0.5c1.14-0.693,0.187-3.48,0.5-5c4.386-0.792,7.895-1.542,11.001-2.5c0,1.833,0,3.667,0,5.5
			C24.168,14.25,24.835,14.25,25.502,14.25z"/>
		<path fill-rule="evenodd" clip-rule="evenodd" fill="#DAD4D1" d="M14.501,43.752c0-7.333,0-14.667,0-22.001c0.167,0,0.333,0,0.5,0
			c0,0.167,0,0.333,0,0.5c0,7.167,0,14.334,0,21.501C14.834,43.752,14.668,43.752,14.501,43.752z"/>
		<path fill-rule="evenodd" clip-rule="evenodd" fill="#DAD4D1" d="M49.003,86.254c-1.046,0.288-1.428,1.24-3,1.001
			c-0.562-0.106-0.778-0.556-1-1.001C46.52,86.279,47.666,85.367,49.003,86.254z"/>
		<path fill-rule="evenodd" clip-rule="evenodd" fill="#EBE8E5" d="M17.001,88.755c-0.081,0.586-0.911,0.421-1.5,0.5
			c0.081,0.581-0.11,0.89-0.5,1c0.787-4.88,0.431-10.904,0.5-16.501c0.167,0,0.333,0,0.5,0c-1.489,2.688,1.787,13.214,0.5,14.501
			c2.544-2.545-2.224-10.385,0.5-14.501C17.001,78.754,17.001,83.754,17.001,88.755z"/>
		<path fill-rule="evenodd" clip-rule="evenodd" fill="#DAD4D1" d="M17.501,88.755c1.152,1.348,0.178,4.822,0.5,7
			C16.85,94.407,17.824,90.932,17.501,88.755z"/>
		<path fill-rule="evenodd" clip-rule="evenodd" fill="#DAD4D1" d="M52.503,3.25c3.216-0.285,5.858-1.142,9-1.5
			c-0.162,1.837,0.427,4.427-0.5,5.5c-0.333,0-0.666,0-1,0c-0.109-1.89,0.509-4.509-1.5-4.5c-1.224,2.11,0.468,7.135-1.5,8.5
			c-0.981-0.379,1.357-1.596,0.5-3.5c-1.999,0.001-3.001,0.999-5,1C52.503,6.917,52.503,5.083,52.503,3.25z"/>
		<path fill-rule="evenodd" clip-rule="evenodd" fill="#DAD4D1" d="M51.503,77.254c-3.382-2.619-9.346-2.655-10.501-7.5
			c0.334,0,0.667,0,1,0c4.206,1.993,10.677,6.947,14.501,6c0-0.167,0-0.333,0-0.5c0.167,0,0.334,0,0.5,0
			c0.112-0.388,0.014-0.986,0.5-1c-0.215,1.618,0.658,4.324-1,4.5C54.275,78.815,53.403,77.521,51.503,77.254z"/>
		<path fill-rule="evenodd" clip-rule="evenodd" fill="#DAD4D1" d="M59.503,12.75c0.31-1.357-0.635-3.968,0.5-4.5
			c0,15.167,0,30.335,0,45.502c-0.166,0-0.333,0-0.5,0c0.053-10.4-0.071-23.244,0-32.002c0-1.833,0-3.667,0-5.5
			C58.376,15.169,59.917,14.545,59.503,12.75z"/>
		<path fill-rule="evenodd" clip-rule="evenodd" fill="#EBE8E5" d="M57.503,11.25c0.583,0.084,0.543,0.791,0.5,1.5
			c0,9.834,0,19.668,0,29.501c-0.166,0-0.333,0-0.5,0C57.503,31.918,57.503,21.584,57.503,11.25z"/>
	</g>
</g>
</svg>
