<?xml version="1.0" encoding="utf-8"?>
<!-- Generator: Adobe Illustrator 15.0.0, SVG Export Plug-In . SVG Version: 6.00 Build 0)  -->
<!DOCTYPE svg PUBLIC "-//W3C//DTD SVG 1.1//EN" "http://www.w3.org/Graphics/SVG/1.1/DTD/svg11.dtd">
<svg version="1.1" id="Calque_1" xmlns="http://www.w3.org/2000/svg" xmlns:xlink="http://www.w3.org/1999/xlink" x="0px" y="0px"
	 width="35.852px" height="25px" viewBox="0 0 35.852 25" enable-background="new 0 0 35.852 25" xml:space="preserve">
<path fill="#984424" d="M31.052,2.638c0,0-1.487-0.94-1.009-2.379c0,0,0.222-0.222,0.664,0.407c0,0,0.608,0.368,0.701,1.973"/>
<path fill="#AB4D23" d="M35.633,5.414c0.056-0.443-0.804-1.245-0.804-1.245c-0.579-0.831-1.3-1.19-1.3-1.19
	c-0.441-0.276-0.802-0.609-0.802-0.609c-1.161-0.913-2.296,1.052-2.296,1.052c-0.215,0.319-1.292,1.835-1.292,1.835
	c-1.512,1.328-3.245,0.442-3.245,0.442c-1.512-0.922-4.594-1.53-4.594-1.53c-2.686-0.406-5.568,1.761-7.197,3.256
	C13.237,8.258,12.13,9.75,12.13,9.75c0,0,0,0,0-0.001C7.24,16.696,0,16.949,0,16.949c6.986,0.484,10.254-2.914,10.254-2.914
	c2.915-2.582,3.993-2.286,3.993-2.286c0.139,0.995,1.383,1.246,1.383,1.246c1.522,0.22,1.467,1.547,1.467,1.547
	c0.332,3.017-3.404,5.949-3.404,5.949c-0.581,0.719,1.024,1.272,1.024,1.272c1.992,0.996,2.518,2.572,2.518,2.572
	c0.11,0.831,0.802,0.444,0.802,0.444c1.605-1.577-2.932-3.929-2.932-3.929c-0.305-0.333,2.932-2.796,2.932-2.796
	c4.316-3.485,4.454-5.367,4.454-5.367c0.333-0.388,1.716-0.912,1.716-0.912c5.256-0.858,5.894-3.873,5.894-3.873
	c1.161-2.352,1.77-2.352,1.77-2.352c0.116,0.267,0.379,0.436,0.643,0.543c0.128,0.049,0.533,0.172,1.198,0.101l0,0
	c0.53-0.071,1.175-0.118,1.175-0.118C35.8,6.216,35.633,5.414,35.633,5.414z"/>
<path fill="#AB4D23" d="M31.723,2.638c0,0-1.402-0.627-1.329-1.365c0,0-0.146-1.475,0.369-1.032c0,0,0.571,0.294,0.757,0.313
	c0,0,0.571,0.129,0.645,1.845"/>
<path fill="#984424" d="M21.069,10.2c0,0,2.6,1.161,0.773,3.928c0,0,1.19-2.545-0.995-3.431"/>
<path fill="#562A19" d="M35.638,5.649c0,0-0.221-0.447-0.441-0.245L35.638,5.649z"/>
<path fill="#984424" d="M31.765,5.036c0,0-0.092,0.643,0.683,1.032c0,0-0.812-0.571-0.498-1.382L31.765,5.036z"/>
<path fill="#AB4D23" d="M26.669,10.716c-1.068,0.369-0.995,3.542-0.995,3.542c0.073,1.438-0.406,0.884-0.406,0.884
	c-0.526-0.63-0.368,0.259-0.368,0.259c0.241,0.972,0.78,0.522,1.054,0.21c0.16-0.212,0.222-0.55,0.222-0.55l0,0
	c0.275-1.445,0.753-2.242,0.753-2.242c1.585-1.181,2.759-4.017,2.759-4.017L26.669,10.716z"/>
<path fill="#984424" d="M26.529,10.643c0,0-0.526,0.578-0.659,1.421c0,0,0.603-1.477,1.212-1.421"/>
<path fill="#851110" d="M30.531,3.266c0,0,1.307,0.21,2.618-0.55l-0.066-0.049c0,0,0.442-0.103,0.38,0.195
	c0,0-0.169,0.996-3.21,0.819C30.253,3.681,30.282,3.244,30.531,3.266z"/>
<path fill="#7A100C" d="M30.365,3.643c-0.062-0.063,0.037-0.282,0.05-0.307l0.024,0.012c-0.039,0.088-0.09,0.239-0.055,0.275
	L30.365,3.643z"/>
<path fill="#7A100C" d="M33.374,2.959c-0.003-0.079-0.023-0.136-0.064-0.171c-0.05-0.043-0.11-0.037-0.111-0.037l-0.003-0.028
	c0.003,0,0.074-0.007,0.132,0.044c0.047,0.04,0.071,0.104,0.073,0.191L33.374,2.959z"/>
<path fill="#7A100C" d="M30.414,3.634c-0.013-0.142,0.06-0.27,0.062-0.275l0.024,0.014C30.5,3.375,30.43,3.499,30.44,3.632
	L30.414,3.634z"/>
<path fill="#7A100C" d="M30.519,3.638c-0.052-0.106,0.036-0.271,0.041-0.279l0.023,0.014c-0.001,0.001-0.086,0.161-0.041,0.253
	L30.519,3.638z"/>
<path fill="#7A100C" d="M33.317,3.008c-0.018-0.183-0.152-0.215-0.158-0.215l0.006-0.027c0.001,0,0.158,0.035,0.181,0.24
	L33.317,3.008z"/>
<path fill="#7A100C" d="M33.26,3.086l-0.027,0c0.009-0.17-0.131-0.247-0.132-0.247l0.013-0.025C33.114,2.815,33.269,2.9,33.26,3.086
	z"/>
<path fill="#7A100C" d="M33.158,3.177l-0.027-0.002c0.022-0.208-0.103-0.291-0.104-0.292l0.015-0.023
	C33.048,2.863,33.182,2.953,33.158,3.177z"/>
<path fill="#7A100C" d="M30.614,3.654c-0.036-0.118,0.029-0.286,0.031-0.293l0.027,0.01c-0.002,0.001-0.065,0.166-0.032,0.274
	L30.614,3.654z"/>
<path fill="#7A100C" d="M30.719,3.658c-0.056-0.077,0.02-0.287,0.022-0.296l0.026,0.01c-0.021,0.056-0.064,0.215-0.026,0.27
	L30.719,3.658z"/>
<path fill="#7A100C" d="M33.048,3.231h-0.026c0-0.196-0.088-0.263-0.089-0.264l0.016-0.022C32.953,2.948,33.048,3.02,33.048,3.231z"
	/>
<path fill="#7A100C" d="M30.842,3.659c-0.049-0.055-0.01-0.271-0.003-0.294l0.026,0.005c-0.016,0.087-0.033,0.237-0.003,0.271
	L30.842,3.659z"/>
<path fill="#7A100C" d="M32.918,3.287l-0.028-0.001c0.009-0.209-0.083-0.267-0.083-0.268l0.013-0.023
	C32.824,2.998,32.927,3.061,32.918,3.287z"/>
<path fill="#7A100C" d="M30.954,3.656C30.9,3.552,30.97,3.369,30.974,3.361l0.024,0.01c0,0.001-0.069,0.178-0.02,0.271L30.954,3.656
	z"/>
<path fill="#7A100C" d="M32.792,3.344L32.764,3.34c0.023-0.165-0.058-0.271-0.06-0.272l0.021-0.017
	C32.73,3.055,32.816,3.167,32.792,3.344z"/>
<path fill="#7A100C" d="M31.093,3.656c-0.079-0.146-0.003-0.291,0-0.297l0.024,0.014c-0.002,0-0.072,0.137,0,0.27L31.093,3.656z"/>
<path fill="#7A100C" d="M32.66,3.405l-0.026-0.002c0.017-0.169-0.06-0.28-0.061-0.281l0.023-0.017
	C32.6,3.111,32.678,3.226,32.66,3.405z"/>
<path fill="#7A100C" d="M31.195,3.655c-0.046-0.128-0.002-0.285-0.001-0.293L31.22,3.37c-0.001,0.001-0.042,0.157-0.001,0.274
	L31.195,3.655z"/>
<path fill="#7A100C" d="M32.494,3.491l-0.026-0.008c0.049-0.148-0.061-0.327-0.061-0.329L32.43,3.14
	C32.435,3.146,32.548,3.332,32.494,3.491z"/>
<path fill="#7A100C" d="M31.345,3.658c-0.062-0.091-0.024-0.286-0.023-0.293l0.027,0.005c0,0.001-0.035,0.192,0.02,0.272
	L31.345,3.658z"/>
<path fill="#7A100C" d="M32.327,3.514l-0.025-0.012c0.066-0.141-0.035-0.293-0.036-0.294l0.022-0.016
	C32.293,3.199,32.399,3.359,32.327,3.514z"/>
<path fill="#7A100C" d="M31.494,3.657c-0.065-0.096-0.044-0.296-0.043-0.305l0.026,0.003c0,0.001-0.02,0.198,0.039,0.287
	L31.494,3.657z"/>
<path fill="#7A100C" d="M32.193,3.527l-0.027-0.004c0.03-0.151-0.055-0.283-0.056-0.284l0.022-0.016
	C32.136,3.229,32.225,3.366,32.193,3.527z"/>
<path fill="#7A100C" d="M31.677,3.623c-0.073-0.055-0.056-0.258-0.054-0.282l0.028,0.002c-0.006,0.059-0.011,0.219,0.041,0.257
	L31.677,3.623z"/>
<path fill="#7A100C" d="M32.058,3.55l-0.025-0.007c0.027-0.118-0.051-0.247-0.052-0.249l0.024-0.014
	C32.01,3.285,32.09,3.421,32.058,3.55z"/>
<path fill="#7A100C" d="M31.813,3.594c-0.062-0.068-0.049-0.27-0.049-0.277l0.028,0.001c-0.005,0.055-0.005,0.208,0.041,0.257
	L31.813,3.594z"/>
<path fill="#7A100C" d="M31.938,3.587l-0.027-0.006c0.029-0.141-0.061-0.286-0.062-0.286l0.023-0.015
	C31.877,3.285,31.969,3.435,31.938,3.587z"/>
<path fill="#E2E1EE" d="M15.936,18.094c0,0-1.124,1.471-2.243,2.397c0,0-0.63,0.574,0.716,1.145c0,0,2.21,1.188,2.826,2.7
	c0,0,0.049,0.867,0.802,0.444c0,0,1.222-0.654-0.362-2.188c0,0-1.219-1.161-2.485-1.702c0,0-0.231-0.093,0.12-0.468
	c0,0,1.37-1.285,1.542-1.425C16.852,18.998,15.784,18.61,15.936,18.094z"/>
<path fill="#D4D2DF" d="M13.864,20.347c0,0,0.706,0.285,0.368,1.209C14.232,21.556,12.939,21.021,13.864,20.347z"/>
<path fill="#BBB8C1" d="M15.923,18.224c0,0-0.489,0.548-0.539,0.718"/>
<path fill="#BBB8C1" d="M15.944,18.318c0,0-0.361,0.431-0.5,0.646"/>
<path fill="#BBB8C1" d="M16.796,18.978c0,0-0.412,0.412-0.582,0.509"/>
<path fill="#BBB8C1" d="M16.703,18.978c0,0-0.424,0.407-0.568,0.442"/>
<path fill="#BBB8C1" d="M15.944,18.436c0,0-0.422,0.455-0.445,0.585"/>
<path fill="#BBB8C1" d="M16.573,18.964c0,0-0.392,0.352-0.539,0.398"/>
<path fill="#BBB8C1" d="M15.984,18.521c0,0-0.402,0.442-0.397,0.554"/>
<path fill="#BBB8C1" d="M16.445,18.914c0,0-0.276,0.3-0.461,0.405"/>
<path fill="#BBB8C1" d="M16.034,18.618c0,0-0.227,0.231-0.381,0.5"/>
<path fill="#BBB8C1" d="M16.304,18.845c0,0-0.279,0.359-0.44,0.443"/>
<path fill="#BBB8C1" d="M16.135,18.688c0,0-0.371,0.365-0.414,0.476"/>
<path fill="#BBB8C1" d="M16.214,18.771c0,0-0.372,0.444-0.493,0.46"/>
<path fill="#BBB8C1" d="M15.344,18.819c0,0,0.165,0.529,0.912,0.724C16.255,19.543,15.53,19.489,15.344,18.819z"/>
<path fill="#BBB8C1" d="M15.936,18.094c0,0-0.194,0.432,0.916,0.904C16.852,18.998,15.701,18.646,15.936,18.094z"/>
<g>
	<path fill="#F8F7FB" d="M17.27,24.394c0,0,0.002-0.093,0.058-0.155"/>
	<path fill="#BBB8C1" d="M17.283,24.394h-0.027c0-0.005,0.002-0.1,0.062-0.165l0.02,0.019
		C17.287,24.305,17.283,24.394,17.283,24.394z"/>
</g>
<g>
	<path fill="#F8F7FB" d="M18.449,23.83c0,0-0.049-0.08-0.127-0.104"/>
	<path fill="#BBB8C1" d="M18.436,23.836c0,0-0.047-0.074-0.12-0.097l0.008-0.027c0.084,0.027,0.134,0.106,0.136,0.11L18.436,23.836z
		"/>
</g>
<path fill="#F8F7FB" stroke="#BBB8C1" stroke-width="0.5" stroke-miterlimit="10" d="M18.469,23.928"/>
<g>
	<path fill="#F8F7FB" d="M17.371,24.18c0,0,0.069-0.121,0.128-0.134"/>
	<path fill="#BBB8C1" d="M17.383,24.188l-0.023-0.016c0.006-0.012,0.073-0.125,0.138-0.14l0.005,0.026
		C17.459,24.069,17.401,24.154,17.383,24.188z"/>
</g>
<g>
	<path fill="#F8F7FB" d="M18.257,23.726c0,0-0.106-0.03-0.135,0"/>
	<path fill="#BBB8C1" d="M18.253,23.739c-0.04-0.012-0.104-0.021-0.12-0.005l-0.021-0.019c0.033-0.035,0.129-0.01,0.149-0.005
		L18.253,23.739z"/>
</g>
<g>
	<path fill="#F8F7FB" d="M18.049,23.718c0,0-0.161,0.017-0.193,0.06"/>
	<path fill="#BBB8C1" d="M17.866,23.785l-0.022-0.017c0.036-0.046,0.187-0.062,0.204-0.063l0.003,0.027
		C17.99,23.738,17.887,23.758,17.866,23.785z"/>
</g>
<path fill="#BBB8C1" d="M17.549,23.989l-0.024-0.011c0.004-0.008,0.093-0.182,0.22-0.182v0.028
	C17.634,23.825,17.55,23.988,17.549,23.989z"/>
<path fill="#F9F9FA" d="M33.599,3.583c0,0,0.21,0.191,0.21,0.607c0,0.416-0.421,0.606-0.421,0.606S32.682,3.871,33.599,3.583z"/>
<linearGradient id="SVGID_1_" gradientUnits="userSpaceOnUse" x1="33.1287" y1="3.9155" x2="33.8093" y2="3.9155">
	<stop  offset="0" style="stop-color:#AC4D23"/>
	<stop  offset="1" style="stop-color:#CC9379"/>
</linearGradient>
<path fill="url(#SVGID_1_)" d="M33.15,4.273c-0.062-0.267-0.01-0.571,0.449-0.715c0,0,0.169,0.041,0.21,0.4
	c0,0-0.111-0.122-0.332,0.015C33.186,4.153,33.15,4.273,33.15,4.273z"/>
<path fill="#12100B" d="M33.791,3.487c-0.07,0.018-0.136,0.042-0.2,0.072c-0.063,0.03-0.125,0.065-0.179,0.107
	c-0.11,0.083-0.197,0.2-0.227,0.334c-0.034,0.133-0.016,0.275,0.023,0.41c0.04,0.134,0.101,0.262,0.167,0.387
	c-0.082-0.116-0.149-0.242-0.197-0.377c-0.046-0.135-0.066-0.286-0.033-0.429c0.034-0.143,0.129-0.269,0.247-0.35
	C33.512,3.559,33.65,3.508,33.791,3.487z"/>
<path fill="none" stroke="#544F4E" stroke-width="0.5" d="M32.969,3.995"/>
<ellipse fill="#12100B" cx="33.657" cy="4.273" rx="0.061" ry="0.186"/>
<path fill="#562A19" d="M33.057,3.775c0.015-0.089,0.048-0.169,0.089-0.246c0.042-0.075,0.096-0.145,0.16-0.208
	c0.064-0.061,0.142-0.118,0.243-0.14c0.05-0.009,0.109-0.005,0.155,0.021c0.045,0.027,0.073,0.069,0.086,0.113
	c-0.042-0.021-0.077-0.037-0.112-0.035c-0.033,0-0.061,0.009-0.089,0.025c-0.058,0.032-0.113,0.083-0.169,0.135L33.25,3.609
	C33.191,3.666,33.129,3.723,33.057,3.775z"/>
<path fill="#562A19" d="M34.885,6.078c-0.122,0.011-0.244-0.001-0.365-0.028c-0.12-0.028-0.238-0.073-0.345-0.146
	c-0.053-0.038-0.103-0.083-0.14-0.138c-0.037-0.056-0.064-0.122-0.07-0.189c-0.015-0.134,0.039-0.258,0.113-0.353
	c-0.034,0.117-0.055,0.235-0.028,0.339c0.025,0.104,0.098,0.188,0.187,0.25c0.092,0.064,0.199,0.111,0.308,0.154
	C34.654,6.007,34.768,6.042,34.885,6.078z"/>
</svg>
