<?xml version="1.0" encoding="utf-8"?>
<!-- Generator: Adobe Illustrator 15.0.0, SVG Export Plug-In . SVG Version: 6.00 Build 0)  -->
<!DOCTYPE svg PUBLIC "-//W3C//DTD SVG 1.1//EN" "http://www.w3.org/Graphics/SVG/1.1/DTD/svg11.dtd">
<svg version="1.1" id="Calque_1" xmlns="http://www.w3.org/2000/svg" xmlns:xlink="http://www.w3.org/1999/xlink" x="0px" y="0px"
	 width="84.667px" height="89.333px" viewBox="0 0 84.667 89.333" enable-background="new 0 0 84.667 89.333" xml:space="preserve">
<g>
	<linearGradient id="SVGID_1_" gradientUnits="userSpaceOnUse" x1="41.1328" y1="59.4409" x2="41.1328" y2="25.8118">
		<stop  offset="0" style="stop-color:#FFFFFF"/>
		<stop  offset="0.0277" style="stop-color:#FFFFFF"/>
		<stop  offset="0.0321" style="stop-color:#FFFFFF"/>
		<stop  offset="1" style="stop-color:#E3E3E2"/>
	</linearGradient>
	<path fill="url(#SVGID_1_)" d="M41.132,32.845c-14.317,0-25.925,11.606-25.925,25.925c0,10.092,5.771,18.83,14.189,23.113
		c0.691-0.506,1.58-0.816,2.67-0.816c2.35,0,3.771,1.438,4.271,3.178c1.555,0.291,3.155,0.451,4.794,0.451
		c1.488,0,2.946-0.135,4.364-0.375c-0.46-2.58,1.002-5.568,4.393-5.568c2.064,0,3.413,1.107,4.051,2.553
		c7.832-4.459,13.117-12.879,13.117-22.535C67.057,44.451,55.451,32.845,41.132,32.845"/>
	<path fill="#C2C1C1" d="M41.132,53.407c0,0.531-0.43,0.959-0.961,0.959c-0.53,0-0.96-0.428-0.96-0.959s0.43-0.959,0.96-0.959
		C40.703,52.448,41.132,52.875,41.132,53.407"/>
	<path fill="#C2C1C1" d="M41.132,58.77c0,0.529-0.43,0.961-0.961,0.961c-0.53,0-0.96-0.432-0.96-0.961
		c0-0.531,0.43-0.961,0.96-0.961C40.703,57.809,41.132,58.239,41.132,58.77"/>
	<path fill="#C2C1C1" d="M41.132,64.75c0,0.529-0.43,0.959-0.961,0.959c-0.53,0-0.96-0.43-0.96-0.959c0-0.531,0.43-0.961,0.96-0.961
		C40.703,63.79,41.132,64.219,41.132,64.75"/>
	<line fill="none" stroke="#818181" stroke-width="2" stroke-miterlimit="10" x1="60.643" y1="50.629" x2="68.282" y2="39.057"/>
	<line fill="#FFFFFF" stroke="#818181" stroke-width="2" stroke-miterlimit="10" x1="22.995" y1="52.112" x2="9.976" y2="42.289"/>
	<line fill="none" stroke="#818181" stroke-width="2" stroke-miterlimit="10" x1="22.995" y1="52.112" x2="9.976" y2="42.289"/>
	<g>
		<path fill="#B2B2B2" d="M1.716,84.749c2.794-2.035,5.893-3.693,9.311-4.709c0.858-0.242,1.744-0.424,2.655-0.523
			c0.456-0.049,0.919-0.076,1.388-0.074c0.435,0,0.82-0.012,1.254-0.029c1.689-0.074,3.405-0.164,5.116-0.277
			c3.426-0.242,6.864-0.404,10.305-0.594c3.441-0.158,6.889-0.254,10.342-0.33c3.455-0.018,6.914-0.01,10.385,0.141
			c1.734,0.09,3.472,0.209,5.214,0.387c0.87,0.09,1.743,0.188,2.618,0.322c0.868,0.145,1.657,0.271,2.495,0.361
			c3.321,0.357,6.716,0.344,10.102,0.047c3.392-0.279,6.778-0.824,10.14-1.605c-3.159,1.416-6.52,2.367-9.936,3.064
			c-3.425,0.652-6.941,1-10.484,0.83c-0.878-0.035-1.797-0.117-2.634-0.199c-0.832-0.082-1.671-0.152-2.515-0.201
			c-1.687-0.102-3.387-0.148-5.09-0.166c-3.407-0.064-6.83-0.049-10.255,0.018c-6.854,0.059-13.719,0.279-20.617,0.258
			c-1.727-0.016-3.45-0.004-5.201-0.098c-0.427-0.021-0.9-0.053-1.325-0.094c-0.391-0.039-0.789-0.055-1.191-0.049
			c-0.806,0.01-1.623,0.105-2.442,0.24C8.061,82.03,4.831,83.286,1.716,84.749z"/>
	</g>
	<linearGradient id="SVGID_2_" gradientUnits="userSpaceOnUse" x1="41.1328" y1="29.4785" x2="41.1328" y2="55.0279">
		<stop  offset="0" style="stop-color:#FFFFFF"/>
		<stop  offset="0.0277" style="stop-color:#FFFFFF"/>
		<stop  offset="0.0321" style="stop-color:#FFFFFF"/>
		<stop  offset="1" style="stop-color:#E3E3E2"/>
	</linearGradient>
	<path fill="url(#SVGID_2_)" d="M61.502,23.713c0,11.25-9.119,20.369-20.369,20.369s-20.37-9.119-20.37-20.369
		s9.12-20.369,20.37-20.369S61.502,12.463,61.502,23.713"/>
	<path fill="#78BAC5" d="M37.147,20.336c0,1.865-1.512,3.377-3.377,3.377s-3.377-1.512-3.377-3.377s1.512-3.378,3.377-3.378
		S37.147,18.471,37.147,20.336"/>
	<path fill="#78BAC5" d="M46.942,20.336c0,1.865-1.512,3.377-3.376,3.377c-1.866,0-3.378-1.512-3.378-3.377s1.512-3.378,3.378-3.378
		C45.43,16.958,46.942,18.471,46.942,20.336"/>
	<path fill="#C2C1C1" d="M40.171,37.251c0,0.529-0.429,0.959-0.96,0.959c-0.53,0-0.96-0.43-0.96-0.959
		c0-0.532,0.43-0.961,0.96-0.961C39.743,36.29,40.171,36.719,40.171,37.251"/>
	<path fill="#C2C1C1" d="M37.752,37.251c0,0.529-0.43,0.959-0.96,0.959c-0.531,0-0.96-0.43-0.96-0.959
		c0-0.532,0.429-0.961,0.96-0.961C37.323,36.29,37.752,36.719,37.752,37.251"/>
	<path fill="#C2C1C1" d="M35.215,36.289c0,0.531-0.43,0.96-0.96,0.96s-0.96-0.429-0.96-0.96c0-0.53,0.43-0.959,0.96-0.959
		S35.215,35.759,35.215,36.289"/>
	<path fill="#C2C1C1" d="M42.927,36.289c0,0.531-0.43,0.96-0.961,0.96c-0.53,0-0.96-0.429-0.96-0.96c0-0.53,0.43-0.959,0.96-0.959
		C42.498,35.33,42.927,35.759,42.927,36.289"/>
	<path fill="#FFFFFF" d="M34.255,21.296c0,0.53-0.43,0.96-0.961,0.96c-0.53,0-0.96-0.43-0.96-0.96c0-0.531,0.43-0.96,0.96-0.96
		C33.826,20.336,34.255,20.765,34.255,21.296"/>
	<path fill="#FFFFFF" d="M43.887,21.296c0,0.53-0.43,0.96-0.96,0.96s-0.96-0.43-0.96-0.96c0-0.531,0.43-0.96,0.96-0.96
		S43.887,20.765,43.887,21.296"/>
	<path fill="#F6A64E" d="M36.993,27.251c0,0-5.869,3.049-5.322,4.576c0.252,0.699,7.139-2.126,7.139-2.126s0.301-1.117-0.258-1.815
		S36.993,27.251,36.993,27.251z"/>
	<g>
		<polygon fill="#818181" points="68.122,38.069 73.49,38.21 68.442,40.044 		"/>
	</g>
	<g>
		<polygon fill="#818181" points="67.374,38.638 70.385,34.504 69.19,39.476 		"/>
	</g>
	<g>
		<polygon fill="#818181" points="67.463,39.631 65.338,34.863 69.1,38.482 		"/>
	</g>
	<g>
		<polygon fill="#818181" points="8.982,42.398 9.45,37.525 10.97,42.18 		"/>
	</g>
	<g>
		<polygon fill="#818181" points="9.605,43.218 6.555,40.924 10.347,41.36 		"/>
	</g>
	<g>
		<polygon fill="#818181" points="10.528,43.123 6.555,44.551 9.424,41.455 		"/>
	</g>
</g>
</svg>
